{
	"asset":{
		"generator":"Khronos glTF Blender I/O v4.5.47",
		"version":"2.0"
	},
	"scene":0,
	"scenes":[
		{
			"name":"Scene",
			"nodes":[
				52
			]
		}
	],
	"nodes":[
		{
			"name":"Head",
			"rotation":[
				0.025848383083939552,
				1.1916947073586925e-07,
				3.081368049606681e-09,
				0.9996659159660339
			],
			"translation":[
				5.820813969714678e-11,
				0.7170730233192444,
				-1.4901161193847656e-08
			]
		},
		{
			"children":[
				0
			],
			"name":"Neck",
			"rotation":[
				-0.02745383232831955,
				2.4571868280114392e-17,
				2.4571866625753167e-17,
				0.9996231198310852
			],
			"translation":[
				0,
				1.3874149322509766,
				0
			]
		},
		{
			"name":"Index3.L",
			"rotation":[
				0.019795382395386696,
				-0.0026303031481802464,
				0.03169553726911545,
				0.999298095703125
			],
			"scale":[
				1,
				1.0000001192092896,
				1
			],
			"translation":[
				1.0728847428254085e-06,
				0.17627806961536407,
				2.421438694000244e-08
			]
		},
		{
			"children":[
				2
			],
			"name":"Index2.L",
			"rotation":[
				-0.008925523608922958,
				0.0008375199977308512,
				0.0002470323524903506,
				0.9999598264694214
			],
			"scale":[
				0.9999998807907104,
				0.9999999403953552,
				1
			],
			"translation":[
				-6.5990025177598e-07,
				0.12699514627456665,
				4.6566128730773926e-09
			]
		},
		{
			"children":[
				3
			],
			"name":"Index1.L",
			"rotation":[
				0.005845464300364256,
				-0.00028300457051955163,
				0.04770001024007797,
				0.998844563961029
			],
			"translation":[
				0.00025048720999620855,
				0.2101576030254364,
				-0.14837278425693512
			]
		},
		{
			"name":"Middle3.L",
			"rotation":[
				0.0019938861951231956,
				-0.002688005333766341,
				0.027451366186141968,
				0.9996175765991211
			],
			"scale":[
				0.9999999403953552,
				0.9999999403953552,
				0.9999998807907104
			],
			"translation":[
				-2.697961463127285e-07,
				0.1712820827960968,
				-6.332993507385254e-08
			]
		},
		{
			"children":[
				5
			],
			"name":"Middle2.L",
			"rotation":[
				-0.0012472610687837005,
				0.0008521766285412014,
				0.0016627006698399782,
				0.9999974966049194
			],
			"scale":[
				1,
				1.0000001192092896,
				1.0000001192092896
			],
			"translation":[
				-8.266652002930641e-07,
				0.12699519097805023,
				3.725290298461914e-09
			]
		},
		{
			"children":[
				6
			],
			"name":"Middle1.L",
			"rotation":[
				0.00584552763029933,
				-0.0002831210440490395,
				0.047700006514787674,
				0.998844563961029
			],
			"translation":[
				6.842870789114386e-05,
				0.2236628532409668,
				-0.04101618006825447
			]
		},
		{
			"name":"Ring3.L",
			"rotation":[
				-0.016542011871933937,
				-0.0026875403709709644,
				0.03514374420046806,
				0.9992417693138123
			],
			"translation":[
				3.570312401279807e-08,
				0.1759578287601471,
				3.725290298461914e-08
			]
		},
		{
			"children":[
				8
			],
			"name":"Ring2.L",
			"rotation":[
				0.012999237515032291,
				0.0008674354176037014,
				0.00036731845466420054,
				0.9999150633811951
			],
			"scale":[
				0.9999998807907104,
				0.9999999403953552,
				0.9999999403953552
			],
			"translation":[
				5.922047421336174e-07,
				0.1269514560699463,
				2.2351741790771484e-08
			]
		},
		{
			"children":[
				9
			],
			"name":"Ring1.L",
			"rotation":[
				-0.00015251136210281402,
				-0.0005696049192920327,
				0.047707460820674896,
				0.9988611936569214
			],
			"scale":[
				0.9999999403953552,
				1.0000001192092896,
				0.9999999403953552
			],
			"translation":[
				-0.0001049804559443146,
				0.22300978004932404,
				0.0612400583922863
			]
		},
		{
			"name":"Pinky3.L",
			"rotation":[
				-0.002585926791653037,
				-0.0026548048481345177,
				0.03634576126933098,
				0.9993324279785156
			],
			"scale":[
				0.9999998807907104,
				1.0000001192092896,
				0.9999999403953552
			],
			"translation":[
				8.093338692560792e-07,
				0.15914830565452576,
				2.0489096641540527e-08
			]
		},
		{
			"children":[
				11
			],
			"name":"Pinky2.L",
			"rotation":[
				-0.011299848556518555,
				0.0009587775566615164,
				0.006569748278707266,
				0.9999141097068787
			],
			"scale":[
				1,
				0.9999999403953552,
				0.9999999403953552
			],
			"translation":[
				-7.852795533835888e-07,
				0.13017137348651886,
				4.470348358154297e-08
			]
		},
		{
			"children":[
				12
			],
			"name":"Pinky1.L",
			"rotation":[
				0.017133943736553192,
				0.0002558997948653996,
				0.04656504839658737,
				0.9987682700157166
			],
			"scale":[
				1.0000001192092896,
				1,
				1.0000001192092896
			],
			"translation":[
				-0.00027339888038113713,
				0.21770943701267242,
				0.16055335104465485
			]
		},
		{
			"children":[
				4,
				7,
				10,
				13
			],
			"name":"Hand2.L",
			"rotation":[
				-0.046809274703264236,
				-2.9762753683826304e-07,
				-7.939378701848909e-05,
				0.9989038705825806
			],
			"scale":[
				1,
				1.0000001192092896,
				1
			],
			"translation":[
				-6.323680281639099e-07,
				0.2707452178001404,
				1.3969838619232178e-08
			]
		},
		{
			"name":"Thumb2.L",
			"rotation":[
				0.06162717193365097,
				-5.948487924456458e-08,
				0.00010451272100908682,
				0.9980992674827576
			],
			"translation":[
				-4.118301148992032e-07,
				0.20867177844047546,
				5.634501576423645e-07
			]
		},
		{
			"children":[
				15
			],
			"name":"Thumb1.L",
			"rotation":[
				-0.5151568055152893,
				-2.0468884542879096e-07,
				-0.0008738016476854682,
				0.85709547996521
			],
			"translation":[
				0.0002673421404324472,
				0.13625428080558777,
				-0.15796415507793427
			]
		},
		{
			"children":[
				14,
				16
			],
			"name":"Hand1.L",
			"rotation":[
				0.04853152111172676,
				-3.5900935557720004e-08,
				-0.012288169004023075,
				0.9987460374832153
			],
			"translation":[
				3.1937915423441154e-07,
				2.2936291694641113,
				4.889443516731262e-08
			]
		},
		{
			"children":[
				17
			],
			"name":"Forearm.L",
			"rotation":[
				-0.006542431190609932,
				0.00011699962487909943,
				0.004408452194184065,
				0.9999688863754272
			],
			"scale":[
				0.9999999403953552,
				0.9999999403953552,
				1
			],
			"translation":[
				1.5393280818898347e-06,
				1.7835924625396729,
				-9.313225746154785e-09
			]
		},
		{
			"children":[
				18
			],
			"name":"Humerus.L",
			"rotation":[
				0.0160909965634346,
				-0.0038803748320788145,
				-0.23443292081356049,
				0.9719913601875305
			],
			"scale":[
				1,
				1,
				0.9999999403953552
			],
			"translation":[
				6.880386536067817e-07,
				1.6525269746780396,
				1.011115813298602e-08
			]
		},
		{
			"children":[
				19
			],
			"name":"Shoulder.L",
			"rotation":[
				-2.812143407027179e-08,
				5.3712433611963206e-08,
				0.857306718826294,
				0.5148060321807861
			],
			"scale":[
				0.9999998211860657,
				0.9999999403953552,
				1
			],
			"translation":[
				0,
				1.3874149322509766,
				0
			]
		},
		{
			"name":"Index3.R",
			"rotation":[
				0.019795382395386696,
				0.0026303031481802464,
				-0.03169553726911545,
				0.999298095703125
			],
			"scale":[
				1,
				1.0000001192092896,
				1
			],
			"translation":[
				-1.6689311905793147e-06,
				0.17627759277820587,
				3.91155481338501e-08
			]
		},
		{
			"children":[
				21
			],
			"name":"Index2.R",
			"rotation":[
				-0.008925523608922958,
				-0.0008375199977308512,
				-0.0002470323524903506,
				0.9999598264694214
			],
			"scale":[
				0.9999998807907104,
				0.9999999403953552,
				1
			],
			"translation":[
				2.426677383482456e-07,
				0.12699562311172485,
				-1.0244548320770264e-08
			]
		},
		{
			"children":[
				22
			],
			"name":"Index1.R",
			"rotation":[
				0.005845464300364256,
				0.00028300457051955163,
				-0.04770001024007797,
				0.998844563961029
			],
			"translation":[
				-0.0002504300500731915,
				0.2101576030254364,
				-0.14837278425693512
			]
		},
		{
			"name":"Middle3.R",
			"rotation":[
				0.0019938861951231956,
				0.002688005333766341,
				-0.027451366186141968,
				0.9996175765991211
			],
			"scale":[
				0.9999999403953552,
				0.9999999403953552,
				0.9999998807907104
			],
			"translation":[
				-9.819013939704746e-07,
				0.1712816059589386,
				-7.82310962677002e-08
			]
		},
		{
			"children":[
				24
			],
			"name":"Middle2.R",
			"rotation":[
				-0.0012472610687837005,
				-0.0008521766285412014,
				-0.0016627006698399782,
				0.9999974966049194
			],
			"scale":[
				1,
				1.0000001192092896,
				1.0000001192092896
			],
			"translation":[
				4.6903733164072037e-07,
				0.12699566781520844,
				1.862645149230957e-08
			]
		},
		{
			"children":[
				25
			],
			"name":"Middle1.R",
			"rotation":[
				0.00584552763029933,
				0.0002831210440490395,
				-0.047700006514787674,
				0.998844563961029
			],
			"translation":[
				-6.837154796812683e-05,
				0.223663330078125,
				-0.04101618006825447
			]
		},
		{
			"name":"Ring3.R",
			"rotation":[
				-0.016542011871933937,
				0.0026875403709709644,
				-0.03514374420046806,
				0.9992417693138123
			],
			"translation":[
				-2.1451705833896995e-07,
				0.1759573519229889,
				3.725290298461914e-08
			]
		},
		{
			"children":[
				27
			],
			"name":"Ring2.R",
			"rotation":[
				0.012999237515032291,
				-0.0008674354176037014,
				-0.00036731845466420054,
				0.9999150633811951
			],
			"scale":[
				0.9999998807907104,
				0.9999999403953552,
				0.9999999403953552
			],
			"translation":[
				-1.0094372555613518e-06,
				0.1269514560699463,
				7.450580596923828e-09
			]
		},
		{
			"children":[
				28
			],
			"name":"Ring1.R",
			"rotation":[
				-0.00015251136210281402,
				0.0005696049192920327,
				-0.047707460820674896,
				0.9988611936569214
			],
			"scale":[
				0.9999999403953552,
				1.0000001192092896,
				0.9999999403953552
			],
			"translation":[
				0.00010503761586733162,
				0.22301025688648224,
				0.0612400583922863
			]
		},
		{
			"name":"Pinky3.R",
			"rotation":[
				-0.002585926791653037,
				0.0026548048481345177,
				-0.03634576126933098,
				0.9993324279785156
			],
			"scale":[
				0.9999998807907104,
				1.0000001192092896,
				0.9999999403953552
			],
			"translation":[
				-8.689385140314698e-07,
				0.15914830565452576,
				8.009374141693115e-08
			]
		},
		{
			"children":[
				30
			],
			"name":"Pinky2.R",
			"rotation":[
				-0.011299848556518555,
				-0.0009587775566615164,
				-0.006569748278707266,
				0.9999141097068787
			],
			"scale":[
				1,
				0.9999999403953552,
				0.9999999403953552
			],
			"translation":[
				9.640934877097607e-07,
				0.13017137348651886,
				4.470348358154297e-08
			]
		},
		{
			"children":[
				31
			],
			"name":"Pinky1.R",
			"rotation":[
				0.017133943736553192,
				-0.0002558997948653996,
				-0.04656504839658737,
				0.9987682700157166
			],
			"scale":[
				1.0000001192092896,
				1,
				1.0000001192092896
			],
			"translation":[
				0.00027345604030415416,
				0.21770991384983063,
				0.16055335104465485
			]
		},
		{
			"children":[
				23,
				26,
				29,
				32
			],
			"name":"Hand2.R",
			"rotation":[
				-0.046809274703264236,
				2.9762753683826304e-07,
				7.939378701848909e-05,
				0.9989038705825806
			],
			"scale":[
				1,
				1.0000001192092896,
				1
			],
			"translation":[
				9.172363206744194e-07,
				0.2707456946372986,
				-4.563480615615845e-08
			]
		},
		{
			"name":"Thumb2.R",
			"rotation":[
				0.06162717193365097,
				5.948487924456458e-08,
				-0.00010451272100908682,
				0.9980992674827576
			],
			"translation":[
				3.159038897138089e-07,
				0.20867154002189636,
				5.634501576423645e-07
			]
		},
		{
			"children":[
				34
			],
			"name":"Thumb1.R",
			"rotation":[
				-0.5151568055152893,
				2.0468884542879096e-07,
				0.0008738016476854682,
				0.85709547996521
			],
			"translation":[
				-0.0002670572721399367,
				0.13625428080558777,
				-0.15796415507793427
			]
		},
		{
			"children":[
				33,
				35
			],
			"name":"Hand1.R",
			"rotation":[
				0.04853152111172676,
				3.5900935557720004e-08,
				0.012288169004023075,
				0.9987460374832153
			],
			"translation":[
				-9.58617363266967e-08,
				2.293628454208374,
				5.634501576423645e-08
			]
		},
		{
			"children":[
				36
			],
			"name":"Forearm.R",
			"rotation":[
				-0.006542431190609932,
				-0.00011699962487909943,
				-0.004408452194184065,
				0.9999688863754272
			],
			"scale":[
				0.9999999403953552,
				0.9999999403953552,
				1
			],
			"translation":[
				-6.340825393635896e-07,
				1.7835923433303833,
				-1.6763806343078613e-08
			]
		},
		{
			"children":[
				37
			],
			"name":"Humerus.R",
			"rotation":[
				0.0160909965634346,
				0.0038803748320788145,
				0.23443292081356049,
				0.9719913601875305
			],
			"scale":[
				1,
				1,
				0.9999999403953552
			],
			"translation":[
				-6.880386536067817e-07,
				1.6525272130966187,
				1.0121338434032623e-08
			]
		},
		{
			"children":[
				38
			],
			"name":"Shoulder.R",
			"rotation":[
				-2.812143407027179e-08,
				-5.3712433611963206e-08,
				-0.857306718826294,
				0.5148060321807861
			],
			"scale":[
				0.9999998211860657,
				0.9999999403953552,
				1
			],
			"translation":[
				0,
				1.3874149322509766,
				0
			]
		},
		{
			"children":[
				1,
				20,
				39
			],
			"name":"Spine3",
			"translation":[
				0,
				1.2241897583007812,
				0
			]
		},
		{
			"children":[
				40
			],
			"name":"Spine2",
			"translation":[
				0,
				0.7508363723754883,
				0
			]
		},
		{
			"children":[
				41
			],
			"name":"Spine1",
			"translation":[
				0,
				0.34709882736206055,
				0
			]
		},
		{
			"name":"Foot.L",
			"rotation":[
				-0.5421656370162964,
				-1.298860663467849e-08,
				-0.0016729857306927443,
				0.8402699828147888
			],
			"scale":[
				1,
				0.9999998807907104,
				1
			],
			"translation":[
				1.255102688446641e-10,
				2.1814589500427246,
				-1.3969838619232178e-09
			]
		},
		{
			"children":[
				43
			],
			"name":"Shin.L",
			"rotation":[
				0.02250480093061924,
				0.0010113745229318738,
				0.04130994901061058,
				0.9988923668861389
			],
			"scale":[
				1,
				1.0000001192092896,
				1.0000001192092896
			],
			"translation":[
				6.586742529179901e-08,
				2.9190356731414795,
				-1.257285475730896e-08
			]
		},
		{
			"children":[
				44
			],
			"name":"Femur.L",
			"rotation":[
				-0.000725352147128433,
				-0.01776396669447422,
				0.9989897608757019,
				0.041272275149822235
			],
			"scale":[
				1.0000135898590088,
				0.9999999403953552,
				1.0000025033950806
			],
			"translation":[
				-0.49021676182746887,
				-0.03444242477416992,
				-0.0389215350151062
			]
		},
		{
			"name":"Foot.R",
			"rotation":[
				-0.5421656370162964,
				1.298860663467849e-08,
				0.0016729857306927443,
				0.8402699828147888
			],
			"scale":[
				1,
				0.9999998807907104,
				1
			],
			"translation":[
				-1.255102688446641e-10,
				2.1814589500427246,
				-6.752088665962219e-09
			]
		},
		{
			"children":[
				46
			],
			"name":"Shin.R",
			"rotation":[
				0.02250480093061924,
				-0.0010113745229318738,
				-0.04130994901061058,
				0.9988923668861389
			],
			"scale":[
				1,
				1.0000001192092896,
				1.0000001192092896
			],
			"translation":[
				-6.262780516408384e-09,
				2.9190354347229004,
				-1.1175870895385742e-08
			]
		},
		{
			"children":[
				47
			],
			"name":"Femur.R",
			"rotation":[
				-0.000725352147128433,
				0.01776396669447422,
				-0.9989897608757019,
				0.041272275149822235
			],
			"scale":[
				1.0000135898590088,
				0.9999999403953552,
				1.0000025033950806
			],
			"translation":[
				0.49021676182746887,
				-0.03444242477416992,
				-0.0389215350151062
			]
		},
		{
			"children":[
				42,
				45,
				48
			],
			"name":"Hip"
		},
		{
			"mesh":0,
			"name":"Hand",
			"skin":0
		},
		{
			"mesh":1,
			"name":"Modeled P",
			"skin":0
		},
		{
			"children":[
				50,
				51,
				49
			],
			"name":"PolyRig",
			"translation":[
				-0.0007183589041233063,
				5.852949619293213,
				0.26291537284851074
			]
		}
	],
	"meshes":[
		{
			"name":"Cube.002",
			"primitives":[
				{
					"attributes":{
						"POSITION":0,
						"NORMAL":1,
						"TEXCOORD_0":2,
						"JOINTS_0":3,
						"WEIGHTS_0":4
					},
					"indices":5
				}
			]
		},
		{
			"name":"Cube.001",
			"primitives":[
				{
					"attributes":{
						"POSITION":7,
						"NORMAL":8,
						"TEXCOORD_0":9,
						"JOINTS_0":10,
						"WEIGHTS_0":11
					},
					"indices":12
				}
			]
		}
	],
	"skins":[
		{
			"inverseBindMatrices":6,
			"joints":[
				49,
				42,
				41,
				40,
				1,
				0,
				20,
				19,
				18,
				17,
				14,
				4,
				3,
				2,
				7,
				6,
				5,
				10,
				9,
				8,
				13,
				12,
				11,
				16,
				15,
				39,
				38,
				37,
				36,
				33,
				23,
				22,
				21,
				26,
				25,
				24,
				29,
				28,
				27,
				32,
				31,
				30,
				35,
				34,
				45,
				44,
				43,
				48,
				47,
				46
			],
			"name":"PolyRig"
		}
	],
	"accessors":[
		{
			"bufferView":0,
			"componentType":5126,
			"count":642,
			"max":[
				6.472198486328125,
				8.826581001281738,
				0.6155271530151367
			],
			"min":[
				-6.472198486328125,
				8.560879707336426,
				-0.13343700766563416
			],
			"type":"VEC3"
		},
		{
			"bufferView":1,
			"componentType":5126,
			"count":642,
			"type":"VEC3"
		},
		{
			"bufferView":2,
			"componentType":5126,
			"count":642,
			"type":"VEC2"
		},
		{
			"bufferView":3,
			"componentType":5121,
			"count":642,
			"type":"VEC4"
		},
		{
			"bufferView":4,
			"componentType":5126,
			"count":642,
			"type":"VEC4"
		},
		{
			"bufferView":5,
			"componentType":5123,
			"count":978,
			"type":"SCALAR"
		},
		{
			"bufferView":6,
			"componentType":5126,
			"count":50,
			"type":"MAT4"
		},
		{
			"bufferView":7,
			"componentType":5126,
			"count":1690,
			"max":[
				5.6186981201171875,
				11.846566200256348,
				0.9156913757324219
			],
			"min":[
				-5.6186981201171875,
				-0.011721611022949219,
				-1.313400149345398
			],
			"type":"VEC3"
		},
		{
			"bufferView":8,
			"componentType":5126,
			"count":1690,
			"type":"VEC3"
		},
		{
			"bufferView":9,
			"componentType":5126,
			"count":1690,
			"type":"VEC2"
		},
		{
			"bufferView":10,
			"componentType":5121,
			"count":1690,
			"type":"VEC4"
		},
		{
			"bufferView":11,
			"componentType":5126,
			"count":1690,
			"type":"VEC4"
		},
		{
			"bufferView":12,
			"componentType":5123,
			"count":1794,
			"type":"SCALAR"
		}
	],
	"bufferViews":[
		{
			"buffer":0,
			"byteLength":7704,
			"byteOffset":0,
			"target":34962
		},
		{
			"buffer":0,
			"byteLength":7704,
			"byteOffset":7704,
			"target":34962
		},
		{
			"buffer":0,
			"byteLength":5136,
			"byteOffset":15408,
			"target":34962
		},
		{
			"buffer":0,
			"byteLength":2568,
			"byteOffset":20544,
			"target":34962
		},
		{
			"buffer":0,
			"byteLength":10272,
			"byteOffset":23112,
			"target":34962
		},
		{
			"buffer":0,
			"byteLength":1956,
			"byteOffset":33384,
			"target":34963
		},
		{
			"buffer":0,
			"byteLength":3200,
			"byteOffset":35340
		},
		{
			"buffer":0,
			"byteLength":20280,
			"byteOffset":38540,
			"target":34962
		},
		{
			"buffer":0,
			"byteLength":20280,
			"byteOffset":58820,
			"target":34962
		},
		{
			"buffer":0,
			"byteLength":13520,
			"byteOffset":79100,
			"target":34962
		},
		{
			"buffer":0,
			"byteLength":6760,
			"byteOffset":92620,
			"target":34962
		},
		{
			"buffer":0,
			"byteLength":27040,
			"byteOffset":99380,
			"target":34962
		},
		{
			"buffer":0,
			"byteLength":3588,
			"byteOffset":126420,
			"target":34963
		}
	],
	"buffers":[
		{
			"byteLength":130008,
			"uri":"PolyPerson.bin"
		}
	]
}
