{
	"asset":{
		"generator":"Khronos glTF Blender I/O v4.5.47",
		"version":"2.0"
	},
	"scene":0,
	"scenes":[
		{
			"name":"Scene",
			"nodes":[
				38
			]
		}
	],
	"nodes":[
		{
			"name":"Head",
			"translation":[
				0,
				1.0316516160964966,
				0
			]
		},
		{
			"name":"Gun.L",
			"rotation":[
				-0.00320899928919971,
				5.63435389788541e-15,
				1.8472096168083007e-17,
				0.9999948740005493
			],
			"translation":[
				-9.926167350636332e-22,
				0.7232570648193359,
				3.166496753692627e-08
			]
		},
		{
			"children":[
				1
			],
			"name":"Humerus.L",
			"rotation":[
				-0.7060818672180176,
				-8.441571708317497e-08,
				-8.417151775574894e-08,
				0.7081302404403687
			],
			"translation":[
				9.602806727571078e-08,
				0.6741944551467896,
				-0.40277090668678284
			]
		},
		{
			"name":"Middle3.R",
			"rotation":[
				4.4334902216817057e-17,
				0,
				5.4105845093002327e-20,
				1
			],
			"translation":[
				-1.5916157281026244e-12,
				0.12676742672920227,
				1.2670753335441987e-11
			]
		},
		{
			"children":[
				3
			],
			"name":"Middle2.R",
			"rotation":[
				4.920387259076139e-17,
				5.082197683525802e-21,
				1.1368689193172465e-13,
				1
			],
			"translation":[
				-2.105634243354526e-12,
				0.13855984807014465,
				1.2670753335441987e-11
			]
		},
		{
			"children":[
				4
			],
			"name":"Middle1.R",
			"rotation":[
				0.02665587328374386,
				4.369861983377632e-08,
				-1.142781002272386e-06,
				0.9996446967124939
			],
			"scale":[
				1,
				0.9999998807907104,
				0.9999998807907104
			],
			"translation":[
				1.1084466677857563e-12,
				0.31466788053512573,
				2.2353010820097552e-07
			]
		},
		{
			"name":"Index3.R",
			"rotation":[
				4.564625811167697e-17,
				0,
				-2.2947613120582817e-17,
				1
			],
			"translation":[
				-1.2514645986172468e-09,
				0.12676742672920227,
				-6.800200935686007e-08
			]
		},
		{
			"children":[
				6
			],
			"name":"Index2.R",
			"rotation":[
				5.375118752870556e-13,
				5.142591132665034e-16,
				1.2549435268738307e-08,
				1
			],
			"translation":[
				-5.46493339470544e-09,
				0.13855984807014465,
				-6.799959351155849e-08
			]
		},
		{
			"children":[
				7
			],
			"name":"Index1.R",
			"rotation":[
				0.02665587328374386,
				4.403313269563114e-08,
				-1.1553257763807778e-06,
				0.9996446967124939
			],
			"scale":[
				1,
				0.9999998807907104,
				0.9999998807907104
			],
			"translation":[
				0.09622529149055481,
				0.2998306155204773,
				-0.0007957388297654688
			]
		},
		{
			"name":"Ring3.R",
			"rotation":[
				4.398510407938063e-17,
				0,
				3.520607741967774e-16,
				1
			],
			"scale":[
				1,
				0.9999998807907104,
				1
			],
			"translation":[
				-1.2514663749740862e-09,
				0.12676741182804108,
				1.1425527191022411e-08
			]
		},
		{
			"children":[
				9
			],
			"name":"Ring2.R",
			"rotation":[
				3.7246763451292964e-09,
				-6.141598731315701e-16,
				-1.4336411169324492e-08,
				1
			],
			"translation":[
				-3.993861241724517e-09,
				0.13855986297130585,
				2.813434285542371e-08
			]
		},
		{
			"children":[
				10
			],
			"name":"Ring1.R",
			"rotation":[
				0.02665586955845356,
				4.331464964479892e-08,
				-1.1284496395091992e-06,
				0.9996446967124939
			],
			"scale":[
				1,
				1,
				0.9999998807907104
			],
			"translation":[
				-0.100470632314682,
				0.2970044016838074,
				-0.0009381345589645207
			]
		},
		{
			"name":"Thumb3.R",
			"rotation":[
				5.248585940864636e-11,
				2.2737367544323206e-12,
				1.2591488030011533e-06,
				1
			],
			"translation":[
				5.0895323511213064e-08,
				0.1267673671245575,
				2.586157279438339e-07
			]
		},
		{
			"children":[
				12
			],
			"name":"Thumb2.R",
			"rotation":[
				1.8320676087313359e-09,
				-3.1664055821778447e-09,
				-7.227055789371661e-07,
				1
			],
			"scale":[
				1.0000001192092896,
				1,
				1
			],
			"translation":[
				-7.508788257837296e-09,
				0.1385597139596939,
				2.5643066692282446e-07
			]
		},
		{
			"children":[
				13
			],
			"name":"Thumb1.R",
			"rotation":[
				0.024610405787825584,
				0.010200775228440762,
				-0.382548451423645,
				0.9235513210296631
			],
			"scale":[
				0.9999999403953552,
				1,
				0.9999998807907104
			],
			"translation":[
				0.12182692438364029,
				0.07655829191207886,
				-0.01271258108317852
			]
		},
		{
			"children":[
				5,
				8,
				11,
				14
			],
			"name":"Hand.R",
			"rotation":[
				-0.007900492288172245,
				-2.6411903775169776e-08,
				2.466368016484921e-07,
				0.9999687671661377
			],
			"scale":[
				1,
				0.9999999403953552,
				1
			],
			"translation":[
				-1.4267698134062812e-11,
				0.6823524832725525,
				3.726558261973878e-08
			]
		},
		{
			"children":[
				15
			],
			"name":"Forearm.R",
			"rotation":[
				-0.017309125512838364,
				-4.743611498270184e-05,
				-6.265927510185065e-08,
				0.9998502135276794
			],
			"scale":[
				1,
				1.0000001192092896,
				1
			],
			"translation":[
				-8.751555036212721e-12,
				0.7232570648193359,
				-3.167381379398648e-08
			]
		},
		{
			"children":[
				16
			],
			"name":"Humerus.R",
			"rotation":[
				0.7060818672180176,
				1.8284703401150182e-05,
				1.8506769265513867e-05,
				0.7081302404403687
			],
			"translation":[
				-1.5684477716604306e-07,
				0.6741944551467896,
				0.40277090668678284
			]
		},
		{
			"children":[
				0,
				2,
				17
			],
			"name":"Torso",
			"translation":[
				0,
				0.05395305156707764,
				0
			]
		},
		{
			"name":"Foot.L",
			"rotation":[
				-0.4786539077758789,
				-1.0989880117051598e-08,
				2.2568507063169818e-08,
				0.878003716468811
			],
			"scale":[
				1,
				1,
				0.9999999403953552
			],
			"translation":[
				2.9802322387695312e-08,
				0.7547006011009216,
				-1.7763568394002505e-15
			]
		},
		{
			"children":[
				19
			],
			"name":"Shin.L",
			"rotation":[
				0,
				1.589324405415482e-08,
				0,
				1
			],
			"translation":[
				2.9802322387695312e-08,
				0.5552880764007568,
				8.881784197001252e-16
			]
		},
		{
			"children":[
				20
			],
			"name":"Femur.L",
			"rotation":[
				0.70710688829422,
				0,
				-0.7071066498756409,
				0
			],
			"scale":[
				0.9999999403953552,
				0.9999998211860657,
				0.9999999403953552
			],
			"translation":[
				5.0370754678397134e-08,
				-0.15658891201019287,
				-0.2112702578306198
			]
		},
		{
			"name":"Foot.R",
			"rotation":[
				0.4786539077758789,
				-6.413786479697592e-08,
				-8.867439760251727e-08,
				0.878003716468811
			],
			"translation":[
				2.9802320611338473e-08,
				0.7547004222869873,
				-3.552713678800501e-15
			]
		},
		{
			"children":[
				22
			],
			"name":"Shin.R",
			"rotation":[
				0,
				-1.5893258265009536e-08,
				0,
				1
			],
			"translation":[
				2.9802320611338473e-08,
				0.5552881956100464,
				-2.6645352591003757e-15
			]
		},
		{
			"children":[
				23
			],
			"name":"Femur.R",
			"rotation":[
				-0.7071066498756409,
				0,
				-0.70710688829422,
				0
			],
			"scale":[
				0.9999999403953552,
				0.9999998807907104,
				0.9999999403953552
			],
			"translation":[
				-8.227167569430094e-08,
				-0.15658891201019287,
				0.2112702578306198
			]
		},
		{
			"children":[
				18,
				21,
				24
			],
			"name":"Hip",
			"rotation":[
				0,
				1.1920928955078125e-07,
				0,
				1
			]
		},
		{
			"mesh":0,
			"name":"Arm1",
			"skin":0
		},
		{
			"mesh":1,
			"name":"Arm2",
			"skin":0
		},
		{
			"mesh":2,
			"name":"Arm3",
			"skin":0
		},
		{
			"mesh":3,
			"name":"Feet",
			"skin":0
		},
		{
			"mesh":4,
			"name":"Hand",
			"skin":0
		},
		{
			"mesh":5,
			"name":"Hand joints",
			"skin":0
		},
		{
			"mesh":6,
			"name":"Head",
			"skin":0
		},
		{
			"mesh":7,
			"name":"Hip",
			"skin":0
		},
		{
			"mesh":8,
			"name":"Plane",
			"skin":0
		},
		{
			"mesh":9,
			"name":"Shin",
			"skin":0
		},
		{
			"mesh":10,
			"name":"Thigh",
			"skin":0
		},
		{
			"mesh":11,
			"name":"Torso",
			"skin":0
		},
		{
			"children":[
				26,
				27,
				28,
				29,
				30,
				31,
				32,
				33,
				34,
				35,
				36,
				37,
				25
			],
			"name":"Armature",
			"translation":[
				0,
				1.769233226776123,
				0
			]
		}
	],
	"animations":[
		{
			"channels":[
				{
					"sampler":0,
					"target":{
						"node":25,
						"path":"translation"
					}
				},
				{
					"sampler":1,
					"target":{
						"node":25,
						"path":"rotation"
					}
				},
				{
					"sampler":2,
					"target":{
						"node":25,
						"path":"scale"
					}
				},
				{
					"sampler":3,
					"target":{
						"node":18,
						"path":"translation"
					}
				},
				{
					"sampler":4,
					"target":{
						"node":18,
						"path":"rotation"
					}
				},
				{
					"sampler":5,
					"target":{
						"node":18,
						"path":"scale"
					}
				},
				{
					"sampler":6,
					"target":{
						"node":0,
						"path":"translation"
					}
				},
				{
					"sampler":7,
					"target":{
						"node":0,
						"path":"rotation"
					}
				},
				{
					"sampler":8,
					"target":{
						"node":0,
						"path":"scale"
					}
				},
				{
					"sampler":9,
					"target":{
						"node":2,
						"path":"translation"
					}
				},
				{
					"sampler":10,
					"target":{
						"node":2,
						"path":"rotation"
					}
				},
				{
					"sampler":11,
					"target":{
						"node":2,
						"path":"scale"
					}
				},
				{
					"sampler":12,
					"target":{
						"node":1,
						"path":"translation"
					}
				},
				{
					"sampler":13,
					"target":{
						"node":1,
						"path":"rotation"
					}
				},
				{
					"sampler":14,
					"target":{
						"node":1,
						"path":"scale"
					}
				},
				{
					"sampler":15,
					"target":{
						"node":17,
						"path":"translation"
					}
				},
				{
					"sampler":16,
					"target":{
						"node":17,
						"path":"rotation"
					}
				},
				{
					"sampler":17,
					"target":{
						"node":17,
						"path":"scale"
					}
				},
				{
					"sampler":18,
					"target":{
						"node":16,
						"path":"translation"
					}
				},
				{
					"sampler":19,
					"target":{
						"node":16,
						"path":"rotation"
					}
				},
				{
					"sampler":20,
					"target":{
						"node":16,
						"path":"scale"
					}
				},
				{
					"sampler":21,
					"target":{
						"node":15,
						"path":"translation"
					}
				},
				{
					"sampler":22,
					"target":{
						"node":15,
						"path":"rotation"
					}
				},
				{
					"sampler":23,
					"target":{
						"node":15,
						"path":"scale"
					}
				},
				{
					"sampler":24,
					"target":{
						"node":5,
						"path":"translation"
					}
				},
				{
					"sampler":25,
					"target":{
						"node":5,
						"path":"rotation"
					}
				},
				{
					"sampler":26,
					"target":{
						"node":5,
						"path":"scale"
					}
				},
				{
					"sampler":27,
					"target":{
						"node":4,
						"path":"translation"
					}
				},
				{
					"sampler":28,
					"target":{
						"node":4,
						"path":"rotation"
					}
				},
				{
					"sampler":29,
					"target":{
						"node":4,
						"path":"scale"
					}
				},
				{
					"sampler":30,
					"target":{
						"node":3,
						"path":"translation"
					}
				},
				{
					"sampler":31,
					"target":{
						"node":3,
						"path":"rotation"
					}
				},
				{
					"sampler":32,
					"target":{
						"node":3,
						"path":"scale"
					}
				},
				{
					"sampler":33,
					"target":{
						"node":8,
						"path":"translation"
					}
				},
				{
					"sampler":34,
					"target":{
						"node":8,
						"path":"rotation"
					}
				},
				{
					"sampler":35,
					"target":{
						"node":8,
						"path":"scale"
					}
				},
				{
					"sampler":36,
					"target":{
						"node":7,
						"path":"translation"
					}
				},
				{
					"sampler":37,
					"target":{
						"node":7,
						"path":"rotation"
					}
				},
				{
					"sampler":38,
					"target":{
						"node":7,
						"path":"scale"
					}
				},
				{
					"sampler":39,
					"target":{
						"node":6,
						"path":"translation"
					}
				},
				{
					"sampler":40,
					"target":{
						"node":6,
						"path":"rotation"
					}
				},
				{
					"sampler":41,
					"target":{
						"node":6,
						"path":"scale"
					}
				},
				{
					"sampler":42,
					"target":{
						"node":11,
						"path":"translation"
					}
				},
				{
					"sampler":43,
					"target":{
						"node":11,
						"path":"rotation"
					}
				},
				{
					"sampler":44,
					"target":{
						"node":11,
						"path":"scale"
					}
				},
				{
					"sampler":45,
					"target":{
						"node":10,
						"path":"translation"
					}
				},
				{
					"sampler":46,
					"target":{
						"node":10,
						"path":"rotation"
					}
				},
				{
					"sampler":47,
					"target":{
						"node":10,
						"path":"scale"
					}
				},
				{
					"sampler":48,
					"target":{
						"node":9,
						"path":"translation"
					}
				},
				{
					"sampler":49,
					"target":{
						"node":9,
						"path":"rotation"
					}
				},
				{
					"sampler":50,
					"target":{
						"node":9,
						"path":"scale"
					}
				},
				{
					"sampler":51,
					"target":{
						"node":14,
						"path":"translation"
					}
				},
				{
					"sampler":52,
					"target":{
						"node":14,
						"path":"rotation"
					}
				},
				{
					"sampler":53,
					"target":{
						"node":14,
						"path":"scale"
					}
				},
				{
					"sampler":54,
					"target":{
						"node":13,
						"path":"translation"
					}
				},
				{
					"sampler":55,
					"target":{
						"node":13,
						"path":"rotation"
					}
				},
				{
					"sampler":56,
					"target":{
						"node":13,
						"path":"scale"
					}
				},
				{
					"sampler":57,
					"target":{
						"node":12,
						"path":"translation"
					}
				},
				{
					"sampler":58,
					"target":{
						"node":12,
						"path":"rotation"
					}
				},
				{
					"sampler":59,
					"target":{
						"node":12,
						"path":"scale"
					}
				},
				{
					"sampler":60,
					"target":{
						"node":21,
						"path":"translation"
					}
				},
				{
					"sampler":61,
					"target":{
						"node":21,
						"path":"rotation"
					}
				},
				{
					"sampler":62,
					"target":{
						"node":21,
						"path":"scale"
					}
				},
				{
					"sampler":63,
					"target":{
						"node":20,
						"path":"translation"
					}
				},
				{
					"sampler":64,
					"target":{
						"node":20,
						"path":"rotation"
					}
				},
				{
					"sampler":65,
					"target":{
						"node":20,
						"path":"scale"
					}
				},
				{
					"sampler":66,
					"target":{
						"node":19,
						"path":"translation"
					}
				},
				{
					"sampler":67,
					"target":{
						"node":19,
						"path":"rotation"
					}
				},
				{
					"sampler":68,
					"target":{
						"node":19,
						"path":"scale"
					}
				},
				{
					"sampler":69,
					"target":{
						"node":24,
						"path":"translation"
					}
				},
				{
					"sampler":70,
					"target":{
						"node":24,
						"path":"rotation"
					}
				},
				{
					"sampler":71,
					"target":{
						"node":24,
						"path":"scale"
					}
				},
				{
					"sampler":72,
					"target":{
						"node":23,
						"path":"translation"
					}
				},
				{
					"sampler":73,
					"target":{
						"node":23,
						"path":"rotation"
					}
				},
				{
					"sampler":74,
					"target":{
						"node":23,
						"path":"scale"
					}
				},
				{
					"sampler":75,
					"target":{
						"node":22,
						"path":"translation"
					}
				},
				{
					"sampler":76,
					"target":{
						"node":22,
						"path":"rotation"
					}
				},
				{
					"sampler":77,
					"target":{
						"node":22,
						"path":"scale"
					}
				}
			],
			"name":"Idle",
			"samplers":[
				{
					"input":109,
					"interpolation":"STEP",
					"output":110
				},
				{
					"input":109,
					"interpolation":"STEP",
					"output":111
				},
				{
					"input":109,
					"interpolation":"STEP",
					"output":112
				},
				{
					"input":113,
					"interpolation":"LINEAR",
					"output":114
				},
				{
					"input":109,
					"interpolation":"STEP",
					"output":115
				},
				{
					"input":109,
					"interpolation":"STEP",
					"output":112
				},
				{
					"input":109,
					"interpolation":"STEP",
					"output":116
				},
				{
					"input":109,
					"interpolation":"STEP",
					"output":115
				},
				{
					"input":109,
					"interpolation":"STEP",
					"output":112
				},
				{
					"input":109,
					"interpolation":"STEP",
					"output":117
				},
				{
					"input":113,
					"interpolation":"LINEAR",
					"output":118
				},
				{
					"input":109,
					"interpolation":"STEP",
					"output":119
				},
				{
					"input":109,
					"interpolation":"STEP",
					"output":120
				},
				{
					"input":113,
					"interpolation":"LINEAR",
					"output":121
				},
				{
					"input":109,
					"interpolation":"STEP",
					"output":122
				},
				{
					"input":109,
					"interpolation":"STEP",
					"output":123
				},
				{
					"input":113,
					"interpolation":"LINEAR",
					"output":124
				},
				{
					"input":109,
					"interpolation":"STEP",
					"output":112
				},
				{
					"input":109,
					"interpolation":"STEP",
					"output":125
				},
				{
					"input":113,
					"interpolation":"LINEAR",
					"output":126
				},
				{
					"input":109,
					"interpolation":"STEP",
					"output":112
				},
				{
					"input":109,
					"interpolation":"STEP",
					"output":127
				},
				{
					"input":109,
					"interpolation":"STEP",
					"output":128
				},
				{
					"input":109,
					"interpolation":"STEP",
					"output":129
				},
				{
					"input":109,
					"interpolation":"STEP",
					"output":130
				},
				{
					"input":109,
					"interpolation":"STEP",
					"output":131
				},
				{
					"input":109,
					"interpolation":"STEP",
					"output":132
				},
				{
					"input":109,
					"interpolation":"STEP",
					"output":133
				},
				{
					"input":113,
					"interpolation":"LINEAR",
					"output":134
				},
				{
					"input":109,
					"interpolation":"STEP",
					"output":135
				},
				{
					"input":109,
					"interpolation":"STEP",
					"output":136
				},
				{
					"input":113,
					"interpolation":"LINEAR",
					"output":137
				},
				{
					"input":109,
					"interpolation":"STEP",
					"output":135
				},
				{
					"input":109,
					"interpolation":"STEP",
					"output":138
				},
				{
					"input":109,
					"interpolation":"STEP",
					"output":139
				},
				{
					"input":109,
					"interpolation":"STEP",
					"output":140
				},
				{
					"input":109,
					"interpolation":"STEP",
					"output":141
				},
				{
					"input":113,
					"interpolation":"LINEAR",
					"output":142
				},
				{
					"input":109,
					"interpolation":"STEP",
					"output":143
				},
				{
					"input":109,
					"interpolation":"STEP",
					"output":144
				},
				{
					"input":113,
					"interpolation":"LINEAR",
					"output":145
				},
				{
					"input":109,
					"interpolation":"STEP",
					"output":146
				},
				{
					"input":109,
					"interpolation":"STEP",
					"output":147
				},
				{
					"input":109,
					"interpolation":"STEP",
					"output":148
				},
				{
					"input":109,
					"interpolation":"STEP",
					"output":149
				},
				{
					"input":109,
					"interpolation":"STEP",
					"output":150
				},
				{
					"input":113,
					"interpolation":"LINEAR",
					"output":151
				},
				{
					"input":109,
					"interpolation":"STEP",
					"output":132
				},
				{
					"input":109,
					"interpolation":"STEP",
					"output":152
				},
				{
					"input":113,
					"interpolation":"LINEAR",
					"output":153
				},
				{
					"input":109,
					"interpolation":"STEP",
					"output":154
				},
				{
					"input":109,
					"interpolation":"STEP",
					"output":155
				},
				{
					"input":109,
					"interpolation":"STEP",
					"output":156
				},
				{
					"input":109,
					"interpolation":"STEP",
					"output":112
				},
				{
					"input":109,
					"interpolation":"STEP",
					"output":157
				},
				{
					"input":113,
					"interpolation":"LINEAR",
					"output":158
				},
				{
					"input":109,
					"interpolation":"STEP",
					"output":159
				},
				{
					"input":109,
					"interpolation":"STEP",
					"output":160
				},
				{
					"input":113,
					"interpolation":"LINEAR",
					"output":161
				},
				{
					"input":109,
					"interpolation":"STEP",
					"output":162
				},
				{
					"input":109,
					"interpolation":"STEP",
					"output":163
				},
				{
					"input":109,
					"interpolation":"STEP",
					"output":164
				},
				{
					"input":109,
					"interpolation":"STEP",
					"output":165
				},
				{
					"input":109,
					"interpolation":"STEP",
					"output":166
				},
				{
					"input":109,
					"interpolation":"STEP",
					"output":167
				},
				{
					"input":109,
					"interpolation":"STEP",
					"output":112
				},
				{
					"input":109,
					"interpolation":"STEP",
					"output":168
				},
				{
					"input":109,
					"interpolation":"STEP",
					"output":169
				},
				{
					"input":109,
					"interpolation":"STEP",
					"output":170
				},
				{
					"input":109,
					"interpolation":"STEP",
					"output":171
				},
				{
					"input":109,
					"interpolation":"STEP",
					"output":172
				},
				{
					"input":109,
					"interpolation":"STEP",
					"output":173
				},
				{
					"input":109,
					"interpolation":"STEP",
					"output":174
				},
				{
					"input":109,
					"interpolation":"STEP",
					"output":175
				},
				{
					"input":109,
					"interpolation":"STEP",
					"output":112
				},
				{
					"input":109,
					"interpolation":"STEP",
					"output":176
				},
				{
					"input":109,
					"interpolation":"STEP",
					"output":177
				},
				{
					"input":109,
					"interpolation":"STEP",
					"output":149
				}
			]
		}
	],
	"materials":[
		{
			"doubleSided":true,
			"name":"Metal",
			"pbrMetallicRoughness":{
				"metallicFactor":0,
				"roughnessFactor":0.5
			}
		},
		{
			"doubleSided":true,
			"name":"Red Metal",
			"pbrMetallicRoughness":{
				"metallicFactor":0,
				"roughnessFactor":0.5
			}
		},
		{
			"doubleSided":true,
			"name":"bMetal",
			"pbrMetallicRoughness":{
				"baseColorFactor":[
					0,
					0,
					0,
					1
				],
				"roughnessFactor":0.27941176295280457
			}
		},
		{
			"doubleSided":true,
			"name":"Screen",
			"pbrMetallicRoughness":{
				"metallicFactor":0,
				"roughnessFactor":0.5
			}
		},
		{
			"doubleSided":true,
			"name":"gearline",
			"pbrMetallicRoughness":{
				"metallicFactor":0,
				"roughnessFactor":0.5
			}
		}
	],
	"meshes":[
		{
			"name":"Icosphere",
			"primitives":[
				{
					"attributes":{
						"POSITION":0,
						"NORMAL":1,
						"TEXCOORD_0":2,
						"JOINTS_0":3,
						"WEIGHTS_0":4
					},
					"indices":5,
					"material":0
				}
			]
		},
		{
			"name":"Cube.003",
			"primitives":[
				{
					"attributes":{
						"POSITION":7,
						"NORMAL":8,
						"TEXCOORD_0":9,
						"JOINTS_0":10,
						"WEIGHTS_0":11
					},
					"indices":12,
					"material":0
				},
				{
					"attributes":{
						"POSITION":13,
						"NORMAL":14,
						"TEXCOORD_0":15,
						"JOINTS_0":16,
						"WEIGHTS_0":17
					},
					"indices":18,
					"material":1
				}
			]
		},
		{
			"name":"Cube.004",
			"primitives":[
				{
					"attributes":{
						"POSITION":19,
						"NORMAL":20,
						"TEXCOORD_0":21,
						"JOINTS_0":22,
						"WEIGHTS_0":23
					},
					"indices":24,
					"material":1
				}
			]
		},
		{
			"name":"Cube.002",
			"primitives":[
				{
					"attributes":{
						"POSITION":25,
						"NORMAL":26,
						"TEXCOORD_0":27,
						"JOINTS_0":28,
						"WEIGHTS_0":29
					},
					"indices":30,
					"material":1
				}
			]
		},
		{
			"name":"Cube.005",
			"primitives":[
				{
					"attributes":{
						"POSITION":31,
						"NORMAL":32,
						"TEXCOORD_0":33,
						"JOINTS_0":34,
						"WEIGHTS_0":35
					},
					"indices":36,
					"material":2
				}
			]
		},
		{
			"name":"Cylinder.003",
			"primitives":[
				{
					"attributes":{
						"POSITION":37,
						"NORMAL":38,
						"TEXCOORD_0":39,
						"JOINTS_0":40,
						"WEIGHTS_0":41
					},
					"indices":42,
					"material":0
				}
			]
		},
		{
			"name":"Cube",
			"primitives":[
				{
					"attributes":{
						"POSITION":43,
						"NORMAL":44,
						"TEXCOORD_0":45,
						"JOINTS_0":46,
						"WEIGHTS_0":47
					},
					"indices":48,
					"material":1
				},
				{
					"attributes":{
						"POSITION":49,
						"NORMAL":50,
						"TEXCOORD_0":51,
						"JOINTS_0":52,
						"WEIGHTS_0":53
					},
					"indices":54,
					"material":2
				},
				{
					"attributes":{
						"POSITION":55,
						"NORMAL":56,
						"TEXCOORD_0":57,
						"JOINTS_0":58,
						"WEIGHTS_0":59
					},
					"indices":60,
					"material":3
				},
				{
					"attributes":{
						"POSITION":61,
						"NORMAL":62,
						"TEXCOORD_0":63,
						"JOINTS_0":64,
						"WEIGHTS_0":65
					},
					"indices":66,
					"material":4
				}
			]
		},
		{
			"name":"Cube.001",
			"primitives":[
				{
					"attributes":{
						"POSITION":67,
						"NORMAL":68,
						"TEXCOORD_0":69,
						"JOINTS_0":70,
						"WEIGHTS_0":71
					},
					"indices":72,
					"material":1
				}
			]
		},
		{
			"name":"Plane",
			"primitives":[
				{
					"attributes":{
						"POSITION":73,
						"NORMAL":74,
						"TEXCOORD_0":75,
						"JOINTS_0":76,
						"WEIGHTS_0":77
					},
					"indices":78,
					"material":3
				}
			]
		},
		{
			"name":"Cylinder.001",
			"primitives":[
				{
					"attributes":{
						"POSITION":79,
						"NORMAL":80,
						"TEXCOORD_0":81,
						"JOINTS_0":82,
						"WEIGHTS_0":83
					},
					"indices":84,
					"material":1
				}
			]
		},
		{
			"name":"Cylinder.002",
			"primitives":[
				{
					"attributes":{
						"POSITION":85,
						"NORMAL":86,
						"TEXCOORD_0":87,
						"JOINTS_0":88,
						"WEIGHTS_0":89
					},
					"indices":90,
					"material":2
				}
			]
		},
		{
			"name":"Cylinder",
			"primitives":[
				{
					"attributes":{
						"POSITION":91,
						"NORMAL":92,
						"TEXCOORD_0":93,
						"JOINTS_0":94,
						"WEIGHTS_0":95
					},
					"indices":96,
					"material":1
				},
				{
					"attributes":{
						"POSITION":97,
						"NORMAL":98,
						"TEXCOORD_0":99,
						"JOINTS_0":100,
						"WEIGHTS_0":101
					},
					"indices":102,
					"material":2
				},
				{
					"attributes":{
						"POSITION":103,
						"NORMAL":104,
						"TEXCOORD_0":105,
						"JOINTS_0":106,
						"WEIGHTS_0":107
					},
					"indices":108,
					"material":2
				}
			]
		}
	],
	"skins":[
		{
			"inverseBindMatrices":6,
			"joints":[
				25,
				18,
				0,
				2,
				1,
				17,
				16,
				15,
				5,
				4,
				3,
				8,
				7,
				6,
				11,
				10,
				9,
				14,
				13,
				12,
				21,
				20,
				19,
				24,
				23,
				22
			],
			"name":"Armature"
		}
	],
	"accessors":[
		{
			"bufferView":0,
			"componentType":5126,
			"count":448,
			"max":[
				0.0635286346077919,
				2.60996150970459,
				1.195786714553833
			],
			"min":[
				-0.0635286346077919,
				2.4371063709259033,
				-1.195786714553833
			],
			"type":"VEC3"
		},
		{
			"bufferView":1,
			"componentType":5126,
			"count":448,
			"type":"VEC3"
		},
		{
			"bufferView":2,
			"componentType":5126,
			"count":448,
			"type":"VEC2"
		},
		{
			"bufferView":3,
			"componentType":5121,
			"count":448,
			"type":"VEC4"
		},
		{
			"bufferView":4,
			"componentType":5126,
			"count":448,
			"type":"VEC4"
		},
		{
			"bufferView":5,
			"componentType":5123,
			"count":648,
			"type":"SCALAR"
		},
		{
			"bufferView":6,
			"componentType":5126,
			"count":26,
			"type":"MAT4"
		},
		{
			"bufferView":7,
			"componentType":5126,
			"count":84,
			"max":[
				0.04393310844898224,
				2.582939386367798,
				-1.1340745687484741
			],
			"min":[
				-0.0366109237074852,
				2.456206798553467,
				-2.0354833602905273
			],
			"type":"VEC3"
		},
		{
			"bufferView":8,
			"componentType":5126,
			"count":84,
			"type":"VEC3"
		},
		{
			"bufferView":9,
			"componentType":5126,
			"count":84,
			"type":"VEC2"
		},
		{
			"bufferView":10,
			"componentType":5121,
			"count":84,
			"type":"VEC4"
		},
		{
			"bufferView":11,
			"componentType":5126,
			"count":84,
			"type":"VEC4"
		},
		{
			"bufferView":12,
			"componentType":5123,
			"count":150,
			"type":"SCALAR"
		},
		{
			"bufferView":13,
			"componentType":5126,
			"count":127,
			"max":[
				0.12447714060544968,
				2.7542574405670166,
				-1.2400290966033936
			],
			"min":[
				-0.12447714060544968,
				2.282362461090088,
				-1.9949612617492676
			],
			"type":"VEC3"
		},
		{
			"bufferView":14,
			"componentType":5126,
			"count":127,
			"type":"VEC3"
		},
		{
			"bufferView":15,
			"componentType":5126,
			"count":127,
			"type":"VEC2"
		},
		{
			"bufferView":16,
			"componentType":5121,
			"count":127,
			"type":"VEC4"
		},
		{
			"bufferView":17,
			"componentType":5126,
			"count":127,
			"type":"VEC4"
		},
		{
			"bufferView":18,
			"componentType":5123,
			"count":192,
			"type":"SCALAR"
		},
		{
			"bufferView":19,
			"componentType":5126,
			"count":40,
			"max":[
				0.1319216936826706,
				2.7160391807556152,
				1.8387805223464966
			],
			"min":[
				-0.1319216936826706,
				2.4007554054260254,
				1.1769126653671265
			],
			"type":"VEC3"
		},
		{
			"bufferView":20,
			"componentType":5126,
			"count":40,
			"type":"VEC3"
		},
		{
			"bufferView":21,
			"componentType":5126,
			"count":40,
			"type":"VEC2"
		},
		{
			"bufferView":22,
			"componentType":5121,
			"count":40,
			"type":"VEC4"
		},
		{
			"bufferView":23,
			"componentType":5126,
			"count":40,
			"type":"VEC4"
		},
		{
			"bufferView":24,
			"componentType":5123,
			"count":60,
			"type":"SCALAR"
		},
		{
			"bufferView":25,
			"componentType":5126,
			"count":176,
			"max":[
				0.4293891191482544,
				0.34067463874816895,
				0.3315882086753845
			],
			"min":[
				-0.1161637157201767,
				0.0006305873394012451,
				-0.3315882086753845
			],
			"type":"VEC3"
		},
		{
			"bufferView":26,
			"componentType":5126,
			"count":176,
			"type":"VEC3"
		},
		{
			"bufferView":27,
			"componentType":5126,
			"count":176,
			"type":"VEC2"
		},
		{
			"bufferView":28,
			"componentType":5121,
			"count":176,
			"type":"VEC4"
		},
		{
			"bufferView":29,
			"componentType":5126,
			"count":176,
			"type":"VEC4"
		},
		{
			"bufferView":30,
			"componentType":5123,
			"count":360,
			"type":"SCALAR"
		},
		{
			"bufferView":31,
			"componentType":5126,
			"count":440,
			"max":[
				0.4026339054107666,
				2.5922691822052,
				2.487795352935791
			],
			"min":[
				-0.13939234614372253,
				2.4506115913391113,
				1.7789157629013062
			],
			"type":"VEC3"
		},
		{
			"bufferView":32,
			"componentType":5126,
			"count":440,
			"type":"VEC3"
		},
		{
			"bufferView":33,
			"componentType":5126,
			"count":440,
			"type":"VEC2"
		},
		{
			"bufferView":34,
			"componentType":5121,
			"count":440,
			"type":"VEC4"
		},
		{
			"bufferView":35,
			"componentType":5126,
			"count":440,
			"type":"VEC4"
		},
		{
			"bufferView":36,
			"componentType":5123,
			"count":660,
			"type":"SCALAR"
		},
		{
			"bufferView":37,
			"componentType":5126,
			"count":288,
			"max":[
				0.36480990052223206,
				2.57061505317688,
				2.4271976947784424
			],
			"min":[
				-0.13688501715660095,
				2.506092071533203,
				1.9295481443405151
			],
			"type":"VEC3"
		},
		{
			"bufferView":38,
			"componentType":5126,
			"count":288,
			"type":"VEC3"
		},
		{
			"bufferView":39,
			"componentType":5126,
			"count":288,
			"type":"VEC2"
		},
		{
			"bufferView":40,
			"componentType":5121,
			"count":288,
			"type":"VEC4"
		},
		{
			"bufferView":41,
			"componentType":5126,
			"count":288,
			"type":"VEC4"
		},
		{
			"bufferView":42,
			"componentType":5123,
			"count":480,
			"type":"SCALAR"
		},
		{
			"bufferView":43,
			"componentType":5126,
			"count":84,
			"max":[
				0.4110168516635895,
				3.953206777572632,
				0.4110168516635895
			],
			"min":[
				-0.4110168516635895,
				2.85212779045105,
				-0.4110168516635895
			],
			"type":"VEC3"
		},
		{
			"bufferView":44,
			"componentType":5126,
			"count":84,
			"type":"VEC3"
		},
		{
			"bufferView":45,
			"componentType":5126,
			"count":84,
			"type":"VEC2"
		},
		{
			"bufferView":46,
			"componentType":5121,
			"count":84,
			"type":"VEC4"
		},
		{
			"bufferView":47,
			"componentType":5126,
			"count":84,
			"type":"VEC4"
		},
		{
			"bufferView":48,
			"componentType":5123,
			"count":192,
			"type":"SCALAR"
		},
		{
			"bufferView":49,
			"componentType":5126,
			"count":92,
			"max":[
				0.16521431505680084,
				3.953206777572632,
				0.5154832601547241
			],
			"min":[
				-0.16521431505680084,
				3.0905842781066895,
				-0.5154832601547241
			],
			"type":"VEC3"
		},
		{
			"bufferView":50,
			"componentType":5126,
			"count":92,
			"type":"VEC3"
		},
		{
			"bufferView":51,
			"componentType":5126,
			"count":92,
			"type":"VEC2"
		},
		{
			"bufferView":52,
			"componentType":5121,
			"count":92,
			"type":"VEC4"
		},
		{
			"bufferView":53,
			"componentType":5126,
			"count":92,
			"type":"VEC4"
		},
		{
			"bufferView":54,
			"componentType":5123,
			"count":144,
			"type":"SCALAR"
		},
		{
			"bufferView":55,
			"componentType":5126,
			"count":6,
			"max":[
				0.33832260966300964,
				3.6355857849121094,
				0.3724410831928253
			],
			"min":[
				0.33832260966300964,
				2.8907034397125244,
				-0.3724410831928253
			],
			"type":"VEC3"
		},
		{
			"bufferView":56,
			"componentType":5126,
			"count":6,
			"type":"VEC3"
		},
		{
			"bufferView":57,
			"componentType":5126,
			"count":6,
			"type":"VEC2"
		},
		{
			"bufferView":58,
			"componentType":5121,
			"count":6,
			"type":"VEC4"
		},
		{
			"bufferView":59,
			"componentType":5126,
			"count":6,
			"type":"VEC4"
		},
		{
			"bufferView":60,
			"componentType":5123,
			"count":12,
			"type":"SCALAR"
		},
		{
			"bufferView":61,
			"componentType":5126,
			"count":32,
			"max":[
				0.16521431505680084,
				3.953206777572632,
				0.5154832601547241
			],
			"min":[
				-0.16521431505680084,
				3.0905842781066895,
				-0.5154832601547241
			],
			"type":"VEC3"
		},
		{
			"bufferView":62,
			"componentType":5126,
			"count":32,
			"type":"VEC3"
		},
		{
			"bufferView":63,
			"componentType":5126,
			"count":32,
			"type":"VEC2"
		},
		{
			"bufferView":64,
			"componentType":5121,
			"count":32,
			"type":"VEC4"
		},
		{
			"bufferView":65,
			"componentType":5126,
			"count":32,
			"type":"VEC4"
		},
		{
			"bufferView":66,
			"componentType":5123,
			"count":72,
			"type":"SCALAR"
		},
		{
			"bufferView":67,
			"componentType":5126,
			"count":122,
			"max":[
				0.31080740690231323,
				1.8269282579421997,
				0.31080740690231323
			],
			"min":[
				-0.31080740690231323,
				1.4891563653945923,
				-0.31080740690231323
			],
			"type":"VEC3"
		},
		{
			"bufferView":68,
			"componentType":5126,
			"count":122,
			"type":"VEC3"
		},
		{
			"bufferView":69,
			"componentType":5126,
			"count":122,
			"type":"VEC2"
		},
		{
			"bufferView":70,
			"componentType":5121,
			"count":122,
			"type":"VEC4"
		},
		{
			"bufferView":71,
			"componentType":5126,
			"count":122,
			"type":"VEC4"
		},
		{
			"bufferView":72,
			"componentType":5123,
			"count":228,
			"type":"SCALAR"
		},
		{
			"bufferView":73,
			"componentType":5126,
			"count":4,
			"max":[
				0.3451460301876068,
				3.633927822113037,
				0.37335312366485596
			],
			"min":[
				0.34514597058296204,
				2.877704620361328,
				-0.37335312366485596
			],
			"type":"VEC3"
		},
		{
			"bufferView":74,
			"componentType":5126,
			"count":4,
			"type":"VEC3"
		},
		{
			"bufferView":75,
			"componentType":5126,
			"count":4,
			"type":"VEC2"
		},
		{
			"bufferView":76,
			"componentType":5121,
			"count":4,
			"type":"VEC4"
		},
		{
			"bufferView":77,
			"componentType":5126,
			"count":4,
			"type":"VEC4"
		},
		{
			"bufferView":78,
			"componentType":5123,
			"count":6,
			"type":"SCALAR"
		},
		{
			"bufferView":79,
			"componentType":5126,
			"count":222,
			"max":[
				0.11824923008680344,
				1.197174072265625,
				0.29694706201553345
			],
			"min":[
				-0.11824923008680344,
				0.18098688125610352,
				-0.29694706201553345
			],
			"type":"VEC3"
		},
		{
			"bufferView":80,
			"componentType":5126,
			"count":222,
			"type":"VEC3"
		},
		{
			"bufferView":81,
			"componentType":5126,
			"count":222,
			"type":"VEC2"
		},
		{
			"bufferView":82,
			"componentType":5121,
			"count":222,
			"type":"VEC4"
		},
		{
			"bufferView":83,
			"componentType":5126,
			"count":222,
			"type":"VEC4"
		},
		{
			"bufferView":84,
			"componentType":5123,
			"count":462,
			"type":"SCALAR"
		},
		{
			"bufferView":85,
			"componentType":5126,
			"count":250,
			"max":[
				0.11824923008680344,
				1.7378346920013428,
				0.297685831785202
			],
			"min":[
				-0.11824923008680344,
				0.9335775375366211,
				-0.297685831785202
			],
			"type":"VEC3"
		},
		{
			"bufferView":86,
			"componentType":5126,
			"count":250,
			"type":"VEC3"
		},
		{
			"bufferView":87,
			"componentType":5126,
			"count":250,
			"type":"VEC2"
		},
		{
			"bufferView":88,
			"componentType":5121,
			"count":250,
			"type":"VEC4"
		},
		{
			"bufferView":89,
			"componentType":5126,
			"count":250,
			"type":"VEC4"
		},
		{
			"bufferView":90,
			"componentType":5123,
			"count":522,
			"type":"SCALAR"
		},
		{
			"bufferView":91,
			"componentType":5126,
			"count":72,
			"max":[
				0.34297844767570496,
				2.755549192428589,
				0.34297844767570496
			],
			"min":[
				-0.34297844767570496,
				1.8354036808013916,
				-0.34297844767570496
			],
			"type":"VEC3"
		},
		{
			"bufferView":92,
			"componentType":5126,
			"count":72,
			"type":"VEC3"
		},
		{
			"bufferView":93,
			"componentType":5126,
			"count":72,
			"type":"VEC2"
		},
		{
			"bufferView":94,
			"componentType":5121,
			"count":72,
			"type":"VEC4"
		},
		{
			"bufferView":95,
			"componentType":5126,
			"count":72,
			"type":"VEC4"
		},
		{
			"bufferView":96,
			"componentType":5123,
			"count":132,
			"type":"SCALAR"
		},
		{
			"bufferView":97,
			"componentType":5126,
			"count":172,
			"max":[
				0.1444445252418518,
				2.85555362701416,
				0.40392565727233887
			],
			"min":[
				-0.14444458484649658,
				2.3463478088378906,
				-0.40392565727233887
			],
			"type":"VEC3"
		},
		{
			"bufferView":98,
			"componentType":5126,
			"count":172,
			"type":"VEC3"
		},
		{
			"bufferView":99,
			"componentType":5126,
			"count":172,
			"type":"VEC2"
		},
		{
			"bufferView":100,
			"componentType":5121,
			"count":172,
			"type":"VEC4"
		},
		{
			"bufferView":101,
			"componentType":5126,
			"count":172,
			"type":"VEC4"
		},
		{
			"bufferView":102,
			"componentType":5123,
			"count":300,
			"type":"SCALAR"
		},
		{
			"bufferView":103,
			"componentType":5126,
			"count":20,
			"max":[
				0.34297844767570496,
				2.4044716358184814,
				0.34297844767570496
			],
			"min":[
				-0.34297844767570496,
				2.1528143882751465,
				-0.34297844767570496
			],
			"type":"VEC3"
		},
		{
			"bufferView":104,
			"componentType":5126,
			"count":20,
			"type":"VEC3"
		},
		{
			"bufferView":105,
			"componentType":5126,
			"count":20,
			"type":"VEC2"
		},
		{
			"bufferView":106,
			"componentType":5121,
			"count":20,
			"type":"VEC4"
		},
		{
			"bufferView":107,
			"componentType":5126,
			"count":20,
			"type":"VEC4"
		},
		{
			"bufferView":108,
			"componentType":5123,
			"count":36,
			"type":"SCALAR"
		},
		{
			"bufferView":109,
			"componentType":5126,
			"count":2,
			"max":[
				1
			],
			"min":[
				0.016666666666666666
			],
			"type":"SCALAR"
		},
		{
			"bufferView":110,
			"componentType":5126,
			"count":2,
			"type":"VEC3"
		},
		{
			"bufferView":111,
			"componentType":5126,
			"count":2,
			"type":"VEC4"
		},
		{
			"bufferView":112,
			"componentType":5126,
			"count":2,
			"type":"VEC3"
		},
		{
			"bufferView":113,
			"componentType":5126,
			"count":60,
			"max":[
				1
			],
			"min":[
				0.016666666666666666
			],
			"type":"SCALAR"
		},
		{
			"bufferView":114,
			"componentType":5126,
			"count":60,
			"type":"VEC3"
		},
		{
			"bufferView":115,
			"componentType":5126,
			"count":2,
			"type":"VEC4"
		},
		{
			"bufferView":116,
			"componentType":5126,
			"count":2,
			"type":"VEC3"
		},
		{
			"bufferView":117,
			"componentType":5126,
			"count":2,
			"type":"VEC3"
		},
		{
			"bufferView":118,
			"componentType":5126,
			"count":60,
			"type":"VEC4"
		},
		{
			"bufferView":119,
			"componentType":5126,
			"count":2,
			"type":"VEC3"
		},
		{
			"bufferView":120,
			"componentType":5126,
			"count":2,
			"type":"VEC3"
		},
		{
			"bufferView":121,
			"componentType":5126,
			"count":60,
			"type":"VEC4"
		},
		{
			"bufferView":122,
			"componentType":5126,
			"count":2,
			"type":"VEC3"
		},
		{
			"bufferView":123,
			"componentType":5126,
			"count":2,
			"type":"VEC3"
		},
		{
			"bufferView":124,
			"componentType":5126,
			"count":60,
			"type":"VEC4"
		},
		{
			"bufferView":125,
			"componentType":5126,
			"count":2,
			"type":"VEC3"
		},
		{
			"bufferView":126,
			"componentType":5126,
			"count":60,
			"type":"VEC4"
		},
		{
			"bufferView":127,
			"componentType":5126,
			"count":2,
			"type":"VEC3"
		},
		{
			"bufferView":128,
			"componentType":5126,
			"count":2,
			"type":"VEC4"
		},
		{
			"bufferView":129,
			"componentType":5126,
			"count":2,
			"type":"VEC3"
		},
		{
			"bufferView":130,
			"componentType":5126,
			"count":2,
			"type":"VEC3"
		},
		{
			"bufferView":131,
			"componentType":5126,
			"count":2,
			"type":"VEC4"
		},
		{
			"bufferView":132,
			"componentType":5126,
			"count":2,
			"type":"VEC3"
		},
		{
			"bufferView":133,
			"componentType":5126,
			"count":2,
			"type":"VEC3"
		},
		{
			"bufferView":134,
			"componentType":5126,
			"count":60,
			"type":"VEC4"
		},
		{
			"bufferView":135,
			"componentType":5126,
			"count":2,
			"type":"VEC3"
		},
		{
			"bufferView":136,
			"componentType":5126,
			"count":2,
			"type":"VEC3"
		},
		{
			"bufferView":137,
			"componentType":5126,
			"count":60,
			"type":"VEC4"
		},
		{
			"bufferView":138,
			"componentType":5126,
			"count":2,
			"type":"VEC3"
		},
		{
			"bufferView":139,
			"componentType":5126,
			"count":2,
			"type":"VEC4"
		},
		{
			"bufferView":140,
			"componentType":5126,
			"count":2,
			"type":"VEC3"
		},
		{
			"bufferView":141,
			"componentType":5126,
			"count":2,
			"type":"VEC3"
		},
		{
			"bufferView":142,
			"componentType":5126,
			"count":60,
			"type":"VEC4"
		},
		{
			"bufferView":143,
			"componentType":5126,
			"count":2,
			"type":"VEC3"
		},
		{
			"bufferView":144,
			"componentType":5126,
			"count":2,
			"type":"VEC3"
		},
		{
			"bufferView":145,
			"componentType":5126,
			"count":60,
			"type":"VEC4"
		},
		{
			"bufferView":146,
			"componentType":5126,
			"count":2,
			"type":"VEC3"
		},
		{
			"bufferView":147,
			"componentType":5126,
			"count":2,
			"type":"VEC3"
		},
		{
			"bufferView":148,
			"componentType":5126,
			"count":2,
			"type":"VEC4"
		},
		{
			"bufferView":149,
			"componentType":5126,
			"count":2,
			"type":"VEC3"
		},
		{
			"bufferView":150,
			"componentType":5126,
			"count":2,
			"type":"VEC3"
		},
		{
			"bufferView":151,
			"componentType":5126,
			"count":60,
			"type":"VEC4"
		},
		{
			"bufferView":152,
			"componentType":5126,
			"count":2,
			"type":"VEC3"
		},
		{
			"bufferView":153,
			"componentType":5126,
			"count":60,
			"type":"VEC4"
		},
		{
			"bufferView":154,
			"componentType":5126,
			"count":2,
			"type":"VEC3"
		},
		{
			"bufferView":155,
			"componentType":5126,
			"count":2,
			"type":"VEC3"
		},
		{
			"bufferView":156,
			"componentType":5126,
			"count":2,
			"type":"VEC4"
		},
		{
			"bufferView":157,
			"componentType":5126,
			"count":2,
			"type":"VEC3"
		},
		{
			"bufferView":158,
			"componentType":5126,
			"count":60,
			"type":"VEC4"
		},
		{
			"bufferView":159,
			"componentType":5126,
			"count":2,
			"type":"VEC3"
		},
		{
			"bufferView":160,
			"componentType":5126,
			"count":2,
			"type":"VEC3"
		},
		{
			"bufferView":161,
			"componentType":5126,
			"count":60,
			"type":"VEC4"
		},
		{
			"bufferView":162,
			"componentType":5126,
			"count":2,
			"type":"VEC3"
		},
		{
			"bufferView":163,
			"componentType":5126,
			"count":2,
			"type":"VEC3"
		},
		{
			"bufferView":164,
			"componentType":5126,
			"count":2,
			"type":"VEC4"
		},
		{
			"bufferView":165,
			"componentType":5126,
			"count":2,
			"type":"VEC3"
		},
		{
			"bufferView":166,
			"componentType":5126,
			"count":2,
			"type":"VEC3"
		},
		{
			"bufferView":167,
			"componentType":5126,
			"count":2,
			"type":"VEC4"
		},
		{
			"bufferView":168,
			"componentType":5126,
			"count":2,
			"type":"VEC3"
		},
		{
			"bufferView":169,
			"componentType":5126,
			"count":2,
			"type":"VEC4"
		},
		{
			"bufferView":170,
			"componentType":5126,
			"count":2,
			"type":"VEC3"
		},
		{
			"bufferView":171,
			"componentType":5126,
			"count":2,
			"type":"VEC3"
		},
		{
			"bufferView":172,
			"componentType":5126,
			"count":2,
			"type":"VEC4"
		},
		{
			"bufferView":173,
			"componentType":5126,
			"count":2,
			"type":"VEC3"
		},
		{
			"bufferView":174,
			"componentType":5126,
			"count":2,
			"type":"VEC3"
		},
		{
			"bufferView":175,
			"componentType":5126,
			"count":2,
			"type":"VEC4"
		},
		{
			"bufferView":176,
			"componentType":5126,
			"count":2,
			"type":"VEC3"
		},
		{
			"bufferView":177,
			"componentType":5126,
			"count":2,
			"type":"VEC4"
		}
	],
	"bufferViews":[
		{
			"buffer":0,
			"byteLength":5376,
			"byteOffset":0,
			"target":34962
		},
		{
			"buffer":0,
			"byteLength":5376,
			"byteOffset":5376,
			"target":34962
		},
		{
			"buffer":0,
			"byteLength":3584,
			"byteOffset":10752,
			"target":34962
		},
		{
			"buffer":0,
			"byteLength":1792,
			"byteOffset":14336,
			"target":34962
		},
		{
			"buffer":0,
			"byteLength":7168,
			"byteOffset":16128,
			"target":34962
		},
		{
			"buffer":0,
			"byteLength":1296,
			"byteOffset":23296,
			"target":34963
		},
		{
			"buffer":0,
			"byteLength":1664,
			"byteOffset":24592
		},
		{
			"buffer":0,
			"byteLength":1008,
			"byteOffset":26256,
			"target":34962
		},
		{
			"buffer":0,
			"byteLength":1008,
			"byteOffset":27264,
			"target":34962
		},
		{
			"buffer":0,
			"byteLength":672,
			"byteOffset":28272,
			"target":34962
		},
		{
			"buffer":0,
			"byteLength":336,
			"byteOffset":28944,
			"target":34962
		},
		{
			"buffer":0,
			"byteLength":1344,
			"byteOffset":29280,
			"target":34962
		},
		{
			"buffer":0,
			"byteLength":300,
			"byteOffset":30624,
			"target":34963
		},
		{
			"buffer":0,
			"byteLength":1524,
			"byteOffset":30924,
			"target":34962
		},
		{
			"buffer":0,
			"byteLength":1524,
			"byteOffset":32448,
			"target":34962
		},
		{
			"buffer":0,
			"byteLength":1016,
			"byteOffset":33972,
			"target":34962
		},
		{
			"buffer":0,
			"byteLength":508,
			"byteOffset":34988,
			"target":34962
		},
		{
			"buffer":0,
			"byteLength":2032,
			"byteOffset":35496,
			"target":34962
		},
		{
			"buffer":0,
			"byteLength":384,
			"byteOffset":37528,
			"target":34963
		},
		{
			"buffer":0,
			"byteLength":480,
			"byteOffset":37912,
			"target":34962
		},
		{
			"buffer":0,
			"byteLength":480,
			"byteOffset":38392,
			"target":34962
		},
		{
			"buffer":0,
			"byteLength":320,
			"byteOffset":38872,
			"target":34962
		},
		{
			"buffer":0,
			"byteLength":160,
			"byteOffset":39192,
			"target":34962
		},
		{
			"buffer":0,
			"byteLength":640,
			"byteOffset":39352,
			"target":34962
		},
		{
			"buffer":0,
			"byteLength":120,
			"byteOffset":39992,
			"target":34963
		},
		{
			"buffer":0,
			"byteLength":2112,
			"byteOffset":40112,
			"target":34962
		},
		{
			"buffer":0,
			"byteLength":2112,
			"byteOffset":42224,
			"target":34962
		},
		{
			"buffer":0,
			"byteLength":1408,
			"byteOffset":44336,
			"target":34962
		},
		{
			"buffer":0,
			"byteLength":704,
			"byteOffset":45744,
			"target":34962
		},
		{
			"buffer":0,
			"byteLength":2816,
			"byteOffset":46448,
			"target":34962
		},
		{
			"buffer":0,
			"byteLength":720,
			"byteOffset":49264,
			"target":34963
		},
		{
			"buffer":0,
			"byteLength":5280,
			"byteOffset":49984,
			"target":34962
		},
		{
			"buffer":0,
			"byteLength":5280,
			"byteOffset":55264,
			"target":34962
		},
		{
			"buffer":0,
			"byteLength":3520,
			"byteOffset":60544,
			"target":34962
		},
		{
			"buffer":0,
			"byteLength":1760,
			"byteOffset":64064,
			"target":34962
		},
		{
			"buffer":0,
			"byteLength":7040,
			"byteOffset":65824,
			"target":34962
		},
		{
			"buffer":0,
			"byteLength":1320,
			"byteOffset":72864,
			"target":34963
		},
		{
			"buffer":0,
			"byteLength":3456,
			"byteOffset":74184,
			"target":34962
		},
		{
			"buffer":0,
			"byteLength":3456,
			"byteOffset":77640,
			"target":34962
		},
		{
			"buffer":0,
			"byteLength":2304,
			"byteOffset":81096,
			"target":34962
		},
		{
			"buffer":0,
			"byteLength":1152,
			"byteOffset":83400,
			"target":34962
		},
		{
			"buffer":0,
			"byteLength":4608,
			"byteOffset":84552,
			"target":34962
		},
		{
			"buffer":0,
			"byteLength":960,
			"byteOffset":89160,
			"target":34963
		},
		{
			"buffer":0,
			"byteLength":1008,
			"byteOffset":90120,
			"target":34962
		},
		{
			"buffer":0,
			"byteLength":1008,
			"byteOffset":91128,
			"target":34962
		},
		{
			"buffer":0,
			"byteLength":672,
			"byteOffset":92136,
			"target":34962
		},
		{
			"buffer":0,
			"byteLength":336,
			"byteOffset":92808,
			"target":34962
		},
		{
			"buffer":0,
			"byteLength":1344,
			"byteOffset":93144,
			"target":34962
		},
		{
			"buffer":0,
			"byteLength":384,
			"byteOffset":94488,
			"target":34963
		},
		{
			"buffer":0,
			"byteLength":1104,
			"byteOffset":94872,
			"target":34962
		},
		{
			"buffer":0,
			"byteLength":1104,
			"byteOffset":95976,
			"target":34962
		},
		{
			"buffer":0,
			"byteLength":736,
			"byteOffset":97080,
			"target":34962
		},
		{
			"buffer":0,
			"byteLength":368,
			"byteOffset":97816,
			"target":34962
		},
		{
			"buffer":0,
			"byteLength":1472,
			"byteOffset":98184,
			"target":34962
		},
		{
			"buffer":0,
			"byteLength":288,
			"byteOffset":99656,
			"target":34963
		},
		{
			"buffer":0,
			"byteLength":72,
			"byteOffset":99944,
			"target":34962
		},
		{
			"buffer":0,
			"byteLength":72,
			"byteOffset":100016,
			"target":34962
		},
		{
			"buffer":0,
			"byteLength":48,
			"byteOffset":100088,
			"target":34962
		},
		{
			"buffer":0,
			"byteLength":24,
			"byteOffset":100136,
			"target":34962
		},
		{
			"buffer":0,
			"byteLength":96,
			"byteOffset":100160,
			"target":34962
		},
		{
			"buffer":0,
			"byteLength":24,
			"byteOffset":100256,
			"target":34963
		},
		{
			"buffer":0,
			"byteLength":384,
			"byteOffset":100280,
			"target":34962
		},
		{
			"buffer":0,
			"byteLength":384,
			"byteOffset":100664,
			"target":34962
		},
		{
			"buffer":0,
			"byteLength":256,
			"byteOffset":101048,
			"target":34962
		},
		{
			"buffer":0,
			"byteLength":128,
			"byteOffset":101304,
			"target":34962
		},
		{
			"buffer":0,
			"byteLength":512,
			"byteOffset":101432,
			"target":34962
		},
		{
			"buffer":0,
			"byteLength":144,
			"byteOffset":101944,
			"target":34963
		},
		{
			"buffer":0,
			"byteLength":1464,
			"byteOffset":102088,
			"target":34962
		},
		{
			"buffer":0,
			"byteLength":1464,
			"byteOffset":103552,
			"target":34962
		},
		{
			"buffer":0,
			"byteLength":976,
			"byteOffset":105016,
			"target":34962
		},
		{
			"buffer":0,
			"byteLength":488,
			"byteOffset":105992,
			"target":34962
		},
		{
			"buffer":0,
			"byteLength":1952,
			"byteOffset":106480,
			"target":34962
		},
		{
			"buffer":0,
			"byteLength":456,
			"byteOffset":108432,
			"target":34963
		},
		{
			"buffer":0,
			"byteLength":48,
			"byteOffset":108888,
			"target":34962
		},
		{
			"buffer":0,
			"byteLength":48,
			"byteOffset":108936,
			"target":34962
		},
		{
			"buffer":0,
			"byteLength":32,
			"byteOffset":108984,
			"target":34962
		},
		{
			"buffer":0,
			"byteLength":16,
			"byteOffset":109016,
			"target":34962
		},
		{
			"buffer":0,
			"byteLength":64,
			"byteOffset":109032,
			"target":34962
		},
		{
			"buffer":0,
			"byteLength":12,
			"byteOffset":109096,
			"target":34963
		},
		{
			"buffer":0,
			"byteLength":2664,
			"byteOffset":109108,
			"target":34962
		},
		{
			"buffer":0,
			"byteLength":2664,
			"byteOffset":111772,
			"target":34962
		},
		{
			"buffer":0,
			"byteLength":1776,
			"byteOffset":114436,
			"target":34962
		},
		{
			"buffer":0,
			"byteLength":888,
			"byteOffset":116212,
			"target":34962
		},
		{
			"buffer":0,
			"byteLength":3552,
			"byteOffset":117100,
			"target":34962
		},
		{
			"buffer":0,
			"byteLength":924,
			"byteOffset":120652,
			"target":34963
		},
		{
			"buffer":0,
			"byteLength":3000,
			"byteOffset":121576,
			"target":34962
		},
		{
			"buffer":0,
			"byteLength":3000,
			"byteOffset":124576,
			"target":34962
		},
		{
			"buffer":0,
			"byteLength":2000,
			"byteOffset":127576,
			"target":34962
		},
		{
			"buffer":0,
			"byteLength":1000,
			"byteOffset":129576,
			"target":34962
		},
		{
			"buffer":0,
			"byteLength":4000,
			"byteOffset":130576,
			"target":34962
		},
		{
			"buffer":0,
			"byteLength":1044,
			"byteOffset":134576,
			"target":34963
		},
		{
			"buffer":0,
			"byteLength":864,
			"byteOffset":135620,
			"target":34962
		},
		{
			"buffer":0,
			"byteLength":864,
			"byteOffset":136484,
			"target":34962
		},
		{
			"buffer":0,
			"byteLength":576,
			"byteOffset":137348,
			"target":34962
		},
		{
			"buffer":0,
			"byteLength":288,
			"byteOffset":137924,
			"target":34962
		},
		{
			"buffer":0,
			"byteLength":1152,
			"byteOffset":138212,
			"target":34962
		},
		{
			"buffer":0,
			"byteLength":264,
			"byteOffset":139364,
			"target":34963
		},
		{
			"buffer":0,
			"byteLength":2064,
			"byteOffset":139628,
			"target":34962
		},
		{
			"buffer":0,
			"byteLength":2064,
			"byteOffset":141692,
			"target":34962
		},
		{
			"buffer":0,
			"byteLength":1376,
			"byteOffset":143756,
			"target":34962
		},
		{
			"buffer":0,
			"byteLength":688,
			"byteOffset":145132,
			"target":34962
		},
		{
			"buffer":0,
			"byteLength":2752,
			"byteOffset":145820,
			"target":34962
		},
		{
			"buffer":0,
			"byteLength":600,
			"byteOffset":148572,
			"target":34963
		},
		{
			"buffer":0,
			"byteLength":240,
			"byteOffset":149172,
			"target":34962
		},
		{
			"buffer":0,
			"byteLength":240,
			"byteOffset":149412,
			"target":34962
		},
		{
			"buffer":0,
			"byteLength":160,
			"byteOffset":149652,
			"target":34962
		},
		{
			"buffer":0,
			"byteLength":80,
			"byteOffset":149812,
			"target":34962
		},
		{
			"buffer":0,
			"byteLength":320,
			"byteOffset":149892,
			"target":34962
		},
		{
			"buffer":0,
			"byteLength":72,
			"byteOffset":150212,
			"target":34963
		},
		{
			"buffer":0,
			"byteLength":8,
			"byteOffset":150284
		},
		{
			"buffer":0,
			"byteLength":24,
			"byteOffset":150292
		},
		{
			"buffer":0,
			"byteLength":32,
			"byteOffset":150316
		},
		{
			"buffer":0,
			"byteLength":24,
			"byteOffset":150348
		},
		{
			"buffer":0,
			"byteLength":240,
			"byteOffset":150372
		},
		{
			"buffer":0,
			"byteLength":720,
			"byteOffset":150612
		},
		{
			"buffer":0,
			"byteLength":32,
			"byteOffset":151332
		},
		{
			"buffer":0,
			"byteLength":24,
			"byteOffset":151364
		},
		{
			"buffer":0,
			"byteLength":24,
			"byteOffset":151388
		},
		{
			"buffer":0,
			"byteLength":960,
			"byteOffset":151412
		},
		{
			"buffer":0,
			"byteLength":24,
			"byteOffset":152372
		},
		{
			"buffer":0,
			"byteLength":24,
			"byteOffset":152396
		},
		{
			"buffer":0,
			"byteLength":960,
			"byteOffset":152420
		},
		{
			"buffer":0,
			"byteLength":24,
			"byteOffset":153380
		},
		{
			"buffer":0,
			"byteLength":24,
			"byteOffset":153404
		},
		{
			"buffer":0,
			"byteLength":960,
			"byteOffset":153428
		},
		{
			"buffer":0,
			"byteLength":24,
			"byteOffset":154388
		},
		{
			"buffer":0,
			"byteLength":960,
			"byteOffset":154412
		},
		{
			"buffer":0,
			"byteLength":24,
			"byteOffset":155372
		},
		{
			"buffer":0,
			"byteLength":32,
			"byteOffset":155396
		},
		{
			"buffer":0,
			"byteLength":24,
			"byteOffset":155428
		},
		{
			"buffer":0,
			"byteLength":24,
			"byteOffset":155452
		},
		{
			"buffer":0,
			"byteLength":32,
			"byteOffset":155476
		},
		{
			"buffer":0,
			"byteLength":24,
			"byteOffset":155508
		},
		{
			"buffer":0,
			"byteLength":24,
			"byteOffset":155532
		},
		{
			"buffer":0,
			"byteLength":960,
			"byteOffset":155556
		},
		{
			"buffer":0,
			"byteLength":24,
			"byteOffset":156516
		},
		{
			"buffer":0,
			"byteLength":24,
			"byteOffset":156540
		},
		{
			"buffer":0,
			"byteLength":960,
			"byteOffset":156564
		},
		{
			"buffer":0,
			"byteLength":24,
			"byteOffset":157524
		},
		{
			"buffer":0,
			"byteLength":32,
			"byteOffset":157548
		},
		{
			"buffer":0,
			"byteLength":24,
			"byteOffset":157580
		},
		{
			"buffer":0,
			"byteLength":24,
			"byteOffset":157604
		},
		{
			"buffer":0,
			"byteLength":960,
			"byteOffset":157628
		},
		{
			"buffer":0,
			"byteLength":24,
			"byteOffset":158588
		},
		{
			"buffer":0,
			"byteLength":24,
			"byteOffset":158612
		},
		{
			"buffer":0,
			"byteLength":960,
			"byteOffset":158636
		},
		{
			"buffer":0,
			"byteLength":24,
			"byteOffset":159596
		},
		{
			"buffer":0,
			"byteLength":24,
			"byteOffset":159620
		},
		{
			"buffer":0,
			"byteLength":32,
			"byteOffset":159644
		},
		{
			"buffer":0,
			"byteLength":24,
			"byteOffset":159676
		},
		{
			"buffer":0,
			"byteLength":24,
			"byteOffset":159700
		},
		{
			"buffer":0,
			"byteLength":960,
			"byteOffset":159724
		},
		{
			"buffer":0,
			"byteLength":24,
			"byteOffset":160684
		},
		{
			"buffer":0,
			"byteLength":960,
			"byteOffset":160708
		},
		{
			"buffer":0,
			"byteLength":24,
			"byteOffset":161668
		},
		{
			"buffer":0,
			"byteLength":24,
			"byteOffset":161692
		},
		{
			"buffer":0,
			"byteLength":32,
			"byteOffset":161716
		},
		{
			"buffer":0,
			"byteLength":24,
			"byteOffset":161748
		},
		{
			"buffer":0,
			"byteLength":960,
			"byteOffset":161772
		},
		{
			"buffer":0,
			"byteLength":24,
			"byteOffset":162732
		},
		{
			"buffer":0,
			"byteLength":24,
			"byteOffset":162756
		},
		{
			"buffer":0,
			"byteLength":960,
			"byteOffset":162780
		},
		{
			"buffer":0,
			"byteLength":24,
			"byteOffset":163740
		},
		{
			"buffer":0,
			"byteLength":24,
			"byteOffset":163764
		},
		{
			"buffer":0,
			"byteLength":32,
			"byteOffset":163788
		},
		{
			"buffer":0,
			"byteLength":24,
			"byteOffset":163820
		},
		{
			"buffer":0,
			"byteLength":24,
			"byteOffset":163844
		},
		{
			"buffer":0,
			"byteLength":32,
			"byteOffset":163868
		},
		{
			"buffer":0,
			"byteLength":24,
			"byteOffset":163900
		},
		{
			"buffer":0,
			"byteLength":32,
			"byteOffset":163924
		},
		{
			"buffer":0,
			"byteLength":24,
			"byteOffset":163956
		},
		{
			"buffer":0,
			"byteLength":24,
			"byteOffset":163980
		},
		{
			"buffer":0,
			"byteLength":32,
			"byteOffset":164004
		},
		{
			"buffer":0,
			"byteLength":24,
			"byteOffset":164036
		},
		{
			"buffer":0,
			"byteLength":24,
			"byteOffset":164060
		},
		{
			"buffer":0,
			"byteLength":32,
			"byteOffset":164084
		},
		{
			"buffer":0,
			"byteLength":24,
			"byteOffset":164116
		},
		{
			"buffer":0,
			"byteLength":32,
			"byteOffset":164140
		}
	],
	"buffers":[
		{
			"byteLength":164172,
			"uri":"PolyBotAnim.bin"
		}
	]
}
